<?xml version="1.0" encoding="us-ascii" standalone="no"?><svg xmlns="http://www.w3.org/2000/svg" xmlns:xlink="http://www.w3.org/1999/xlink" contentStyleType="text/css" height="387px" preserveAspectRatio="none" style="width:628px;height:387px;background:#FFFFFF;" version="1.1" viewBox="0 0 628 387" width="628px" zoomAndPan="magnify"><defs/><g><!--class Object--><g id="elem_Object"><rect codeLine="1" fill="#F1F1F1" height="56.6211" id="Object" rx="2.5" ry="2.5" style="stroke:#181818;stroke-width:0.5;" width="83" x="316" y="115"/><ellipse cx="331" cy="135.3105" fill="#ADD1B2" rx="11" ry="11" style="stroke:#181818;stroke-width:1.0;"/><path d="M333.4731,141.4536 Q332.8921,141.7524 332.2529,141.9019 Q331.6138,142.0513 330.9082,142.0513 Q328.4014,142.0513 327.0815,140.3994 Q325.7617,138.7476 325.7617,135.6265 Q325.7617,132.4971 327.0815,130.8452 Q328.4014,129.1934 330.9082,129.1934 Q331.6138,129.1934 332.2612,129.3428 Q332.9087,129.4922 333.4731,129.791 L333.4731,132.5137 Q332.8423,131.9326 332.2488,131.6628 Q331.6553,131.3931 331.0244,131.3931 Q329.6797,131.3931 328.9949,132.4597 Q328.3101,133.5264 328.3101,135.6265 Q328.3101,137.7183 328.9949,138.7849 Q329.6797,139.8516 331.0244,139.8516 Q331.6553,139.8516 332.2488,139.5818 Q332.8423,139.312 333.4731,138.731 Z " fill="#000000"/><text fill="#000000" font-family="sans-serif" font-size="12" font-style="italic" lengthAdjust="spacing" textLength="55" x="343" y="131.6016">&#171;general&#187;</text><text fill="#000000" font-family="sans-serif" font-size="14" lengthAdjust="spacing" textLength="44" x="348.5" y="147.668">Object</text><line style="stroke:#181818;stroke-width:0.5;" x1="317" x2="398" y1="155.6211" y2="155.6211"/><line style="stroke:#181818;stroke-width:0.5;" x1="317" x2="398" y1="163.6211" y2="163.6211"/></g><!--class ArrayList--><g id="elem_ArrayList"><rect fill="#F1F1F1" height="48" id="ArrayList" rx="2.5" ry="2.5" style="stroke:#181818;stroke-width:0.5;" width="92" x="311.5" y="332.24"/><ellipse cx="326.5" cy="348.24" fill="#ADD1B2" rx="11" ry="11" style="stroke:#181818;stroke-width:1.0;"/><path d="M328.9731,354.3831 Q328.3921,354.6819 327.7529,354.8313 Q327.1138,354.9807 326.4082,354.9807 Q323.9014,354.9807 322.5815,353.3289 Q321.2617,351.677 321.2617,348.5559 Q321.2617,345.4265 322.5815,343.7747 Q323.9014,342.1228 326.4082,342.1228 Q327.1138,342.1228 327.7612,342.2722 Q328.4087,342.4216 328.9731,342.7205 L328.9731,345.4431 Q328.3423,344.8621 327.7488,344.5923 Q327.1553,344.3225 326.5244,344.3225 Q325.1797,344.3225 324.4949,345.3892 Q323.8101,346.4558 323.8101,348.5559 Q323.8101,350.6477 324.4949,351.7144 Q325.1797,352.781 326.5244,352.781 Q327.1553,352.781 327.7488,352.5112 Q328.3423,352.2415 328.9731,351.6604 Z " fill="#000000"/><text fill="#000000" font-family="sans-serif" font-size="14" lengthAdjust="spacing" textLength="60" x="340.5" y="353.531">ArrayList</text><line style="stroke:#181818;stroke-width:0.5;" x1="312.5" x2="402.5" y1="364.24" y2="364.24"/><line style="stroke:#181818;stroke-width:0.5;" x1="312.5" x2="402.5" y1="372.24" y2="372.24"/></g><g id="elem_GMN5"><path d="M288,10.69 L288,51.3111 A0,0 0 0 0 288,51.3111 L353.5,51.3111 L357.5,114.89 L361.5,51.3111 L427,51.3111 A0,0 0 0 0 427,51.3111 L427,20.69 L417,10.69 L288,10.69 A0,0 0 0 0 288,10.69 " fill="#FEFFDD" style="stroke:#181818;stroke-width:0.5;"/><path d="M417,10.69 L417,20.69 L427,20.69 L417,10.69 " fill="#FEFFDD" style="stroke:#181818;stroke-width:0.5;"/><text fill="#000000" font-family="sans-serif" font-size="13" lengthAdjust="spacing" textLength="118" x="294" y="28.2584">In java, every class</text><text fill="#000000" font-family="sans-serif" font-size="13" lengthAdjust="spacing" textLength="109" x="294" y="43.5689">extends this one.</text></g><g id="elem_N1"><path d="M462,18.34 L462,43.6505 L621,43.6505 L621,28.34 L611,18.34 L462,18.34 " fill="#FEFFDD" style="stroke:#181818;stroke-width:0.5;"/><path d="M611,18.34 L611,28.34 L621,28.34 L611,18.34 " fill="#FEFFDD" style="stroke:#181818;stroke-width:1.0;"/><text fill="#000000" font-family="sans-serif" font-size="13" lengthAdjust="spacing" textLength="138" x="468" y="35.9084">This is a floating note</text></g><g id="elem_N2"><path d="M343.5,231.62 L343.5,272.2411 L507.5,272.2411 L507.5,241.62 L497.5,231.62 L343.5,231.62 " fill="#FEFFDD" style="stroke:#181818;stroke-width:0.5;"/><path d="M497.5,231.62 L497.5,241.62 L507.5,241.62 L497.5,231.62 " fill="#FEFFDD" style="stroke:#181818;stroke-width:1.0;"/><text fill="#000000" font-family="sans-serif" font-size="13" lengthAdjust="spacing" textLength="143" x="349.5" y="249.1884">This note is connected</text><text fill="#000000" font-family="sans-serif" font-size="13" lengthAdjust="spacing" textLength="115" x="349.5" y="264.4989">to several objects.</text></g><!--class Foo--><g id="elem_Foo"><rect codeLine="11" fill="#F1F1F1" height="48" id="Foo" rx="2.5" ry="2.5" style="stroke:#181818;stroke-width:0.5;" width="58" x="194.5" y="7"/><ellipse cx="209.5" cy="23" fill="#ADD1B2" rx="11" ry="11" style="stroke:#181818;stroke-width:1.0;"/><path d="M211.9731,29.1431 Q211.3921,29.4419 210.7529,29.5913 Q210.1138,29.7407 209.4082,29.7407 Q206.9014,29.7407 205.5815,28.0889 Q204.2617,26.437 204.2617,23.3159 Q204.2617,20.1865 205.5815,18.5347 Q206.9014,16.8828 209.4082,16.8828 Q210.1138,16.8828 210.7612,17.0322 Q211.4087,17.1816 211.9731,17.4805 L211.9731,20.2031 Q211.3423,19.6221 210.7488,19.3523 Q210.1553,19.0825 209.5244,19.0825 Q208.1797,19.0825 207.4949,20.1492 Q206.8101,21.2158 206.8101,23.3159 Q206.8101,25.4077 207.4949,26.4744 Q208.1797,27.541 209.5244,27.541 Q210.1553,27.541 210.7488,27.2712 Q211.3423,27.0015 211.9731,26.4204 Z " fill="#000000"/><text fill="#000000" font-family="sans-serif" font-size="14" lengthAdjust="spacing" textLength="26" x="223.5" y="28.291">Foo</text><line style="stroke:#181818;stroke-width:0.5;" x1="195.5" x2="251.5" y1="39" y2="39"/><line style="stroke:#181818;stroke-width:0.5;" x1="195.5" x2="251.5" y1="47" y2="47"/></g><g id="elem_GMN13"><path d="M6,18.34 L6,43.6505 A0,0 0 0 0 6,43.6505 L159,43.6505 A0,0 0 0 0 159,43.6505 L159,36.34 L194.17,31 L159,28.34 L159,28.34 L149,18.34 L6,18.34 A0,0 0 0 0 6,18.34 " fill="#FEFFDD" style="stroke:#181818;stroke-width:0.5;"/><path d="M149,18.34 L149,28.34 L159,28.34 L149,18.34 " fill="#FEFFDD" style="stroke:#181818;stroke-width:0.5;"/><text fill="#000000" font-family="sans-serif" font-size="13" lengthAdjust="spacing" textLength="132" x="12" y="35.9084">On last defined class</text></g><!--reverse link Object to ArrayList--><g id="link_Object_ArrayList"><path codeLine="2" d="M336.2047,188.513 C324.8547,214.283 319.01,237.35 325.5,272.24 C329.4,293.19 338.39,315.67 345.86,331.95 " fill="none" id="Object-backto-ArrayList" style="stroke:#181818;stroke-width:1.0;"/><polygon fill="none" points="343.46,172.04,330.7137,186.0946,341.6957,190.9315,343.46,172.04" style="stroke:#181818;stroke-width:1.0;"/></g><!--link Object to N2--><g id="link_Object_N2"><path codeLine="8" d="M375.19,172.04 C387.07,190.68 402.44,214.77 413.05,231.41 " fill="none" id="Object-N2" style="stroke:#181818;stroke-width:1.0;stroke-dasharray:7.0,7.0;"/></g><!--link N2 to ArrayList--><g id="link_N2_ArrayList"><path codeLine="9" d="M412.39,272.66 C401.12,289.61 384.85,314.09 372.95,331.99 " fill="none" id="N2-ArrayList" style="stroke:#181818;stroke-width:1.0;stroke-dasharray:7.0,7.0;"/></g><!--SRC=[JOx12eD034JlViNWkGhrA2BqKYWKlVJePQlHAf8KDqY5VdntjO8GI7QIsNdrQAn5-HoeLcGPEcAQp8Wy3tRn6qKHBjDabdjlDGXObA3oXhIxCSMDCPZPd40pJGjg_st5z57Yna9VlOKmnNzt-F22AuDs5ACzT_2B4CQYE1-Frj7rMfXT53KLgy3w68SfQxwDDsEoCyUnVnI97mxaAnMk8bl0IAscA1bELZJKzapDXlu3]--></g></svg>